<svg version="1.0" xmlns="http://www.w3.org/2000/svg"
     class="camera_icon" viewBox="0 0 128.000000 128.000000"
     preserveAspectRatio="xMidYMid meet">

    <g transform="translate(0.000000,128.000000) scale(0.100000,-0.100000)"
       stroke="none">
        <path d="M381 1109 c-17 -17 -31 -41 -31 -54 0 -23 -1 -23 -129 -27 -112 -3
                 -133 -6 -158 -24 -61 -45 -63 -55 -63 -424 0 -317 1 -337 20 -368 11 -18 34
                 -41 52 -52 32 -20 48 -20 580 -18 l546 3 27 25 c53 49 55 63 55 417 0 361 -2
                 372 -63 417 -25 18 -46 21 -158 24 -125 3 -129 4 -129 25 0 26 -26 60 -57 76
                 -14 7 -99 11 -242 11 l-219 0 -31 -31z m473 -45 c9 -8 16 -31 16 -50 0 -47 22
                 -54 176 -54 139 0 157 -8 169 -72 3 -18 5 -170 3 -336 l-3 -304 -28 -24 -28
                 -24 -519 0 -519 0 -28 24 -28 24 -3 304 c-2 166 0 318 3 336 12 64 30 72 169
                 72 154 0 176 7 176 54 0 64 8 66 230 66 167 0 201 -2 214 -16z"/>
        <path d="M547 866 c-213 -79 -273 -338 -114 -494 117 -115 297 -115 414 0 59
                 58 87 126 88 213 0 117 -59 211 -168 267 -53 27 -166 34 -220 14z m204 -84
                 c140 -73 162 -266 42 -372 -91 -80 -211 -81 -303 -3 -54 47 -79 102 -80 174 0
                 177 182 284 341 201z"/>
        <path d="M1030 865 c-17 -21 -16 -64 3 -82 21 -21 68 -20 84 3 18 24 16 59 -3
                 78 -20 20 -68 21 -84 1z"/>
    </g>
</svg>